<?xml version="1.0" encoding="UTF-8" standalone="no"?>
<svg
   xmlns:dc="http://purl.org/dc/elements/1.1/"
   xmlns:cc="http://creativecommons.org/ns#"
   xmlns:rdf="http://www.w3.org/1999/02/22-rdf-syntax-ns#"
   xmlns:svg="http://www.w3.org/2000/svg"
   xmlns="http://www.w3.org/2000/svg"
   xmlns:sodipodi="http://sodipodi.sourceforge.net/DTD/sodipodi-0.dtd"
   xmlns:inkscape="http://www.inkscape.org/namespaces/inkscape"
   width="16"
   height="12.978"
   viewBox="0 0 16 12.978"
   version="1.1"
   id="svg13"
   sodipodi:docname="Twitter.svg"
   inkscape:version="0.92.4 (5da689c313, 2019-01-14)">
  <metadata
     id="metadata17">
    <rdf:RDF>
      <cc:Work
         rdf:about="">
        <dc:format>image/svg+xml</dc:format>
        <dc:type
           rdf:resource="http://purl.org/dc/dcmitype/StillImage" />
        <dc:title></dc:title>
      </cc:Work>
    </rdf:RDF>
  </metadata>
  <sodipodi:namedview
     pagecolor="#ffffff"
     bordercolor="#666666"
     borderopacity="1"
     objecttolerance="10"
     gridtolerance="10"
     guidetolerance="10"
     inkscape:pageopacity="0"
     inkscape:pageshadow="2"
     inkscape:window-width="716"
     inkscape:window-height="480"
     id="namedview15"
     showgrid="false"
     inkscape:zoom="17.75"
     inkscape:cx="8"
     inkscape:cy="6.4889998"
     inkscape:window-x="0"
     inkscape:window-y="0"
     inkscape:window-maximized="0"
     inkscape:current-layer="svg13" />
  <defs
     id="defs7">
    <style
       id="style2">.a{fill:none;}.b{clip-path:url(#a);}.c{fill:#fff;fill-rule:evenodd;}</style>
    <clipPath
       id="a">
      <rect
         class="a"
         width="16"
         height="12.978"
         id="rect4" />
    </clipPath>
  </defs>
  <g
     class="b"
     clip-path="url(#a)"
     id="g11"
     style="fill:#707070;fill-opacity:1">
    <path
       class="c"
       d="M43.067,14.978A9.25,9.25,0,0,0,52.4,5.644V5.2A7.225,7.225,0,0,0,54,3.511a7.379,7.379,0,0,1-1.867.533,3.458,3.458,0,0,0,1.422-1.778,8.153,8.153,0,0,1-2.044.8A3.175,3.175,0,0,0,49.111,2a3.34,3.34,0,0,0-3.289,3.289A1.733,1.733,0,0,0,45.911,6a9.19,9.19,0,0,1-6.756-3.467,3.4,3.4,0,0,0-.444,1.689,3.532,3.532,0,0,0,1.422,2.756,3,3,0,0,1-1.511-.444h0a3.249,3.249,0,0,0,2.667,3.2,2.74,2.74,0,0,1-.889.089,1.513,1.513,0,0,1-.622-.089,3.367,3.367,0,0,0,3.111,2.311A6.711,6.711,0,0,1,38.8,13.467a2.461,2.461,0,0,1-.8-.089,8.39,8.39,0,0,0,5.067,1.6"
       transform="translate(-38 -2)"
       id="path9"
       style="fill:#707070;fill-opacity:1" />
  </g>
</svg>
